<?xml version="1.0" standalone="no"?>
<!DOCTYPE svg PUBLIC "-//W3C//DTD SVG 20010904//EN"
 "http://www.w3.org/TR/2001/REC-SVG-20010904/DTD/svg10.dtd">
<svg version="1.0" xmlns="http://www.w3.org/2000/svg"
 width="585.000000pt" height="183.000000pt" viewBox="0 0 585.000000 183.000000"
 preserveAspectRatio="xMidYMid meet">

<g transform="translate(0.000000,183.000000) scale(0.100000,-0.100000)"
fill="#000000" stroke="none">
<path d="M1040 1790 c0 -17 -13 -85 -30 -152 -16 -66 -30 -131 -30 -144 0 -37
56 -178 163 -404 55 -118 102 -217 103 -219 3 -4 223 47 249 58 11 5 43 52 70
105 41 78 48 99 39 113 -6 10 -18 19 -26 21 -8 2 -80 -40 -159 -92 l-144 -96
-6 31 c-13 62 -20 415 -10 493 l11 78 -93 118 c-67 87 -98 119 -114 119 -19 1
-23 -4 -23 -29z"/>
<path d="M1306 1534 c-10 -25 -7 -114 4 -135 13 -22 43 -25 60 -5 16 21 41
118 34 139 -7 23 -89 25 -98 1z"/>
<path d="M1526 1467 c-20 -30 -46 -104 -46 -132 0 -32 23 -49 48 -36 20 11
127 140 120 146 -9 8 -89 45 -97 45 -6 0 -17 -10 -25 -23z"/>
<path d="M876 1465 c-19 -20 -19 -18 -5 -49 13 -28 32 -38 55 -29 11 4 14 17
12 47 -2 33 -7 42 -24 44 -12 2 -29 -4 -38 -13z"/>
<path d="M741 1381 c-10 -6 -12 -19 -7 -45 6 -31 11 -36 35 -36 27 0 61 26 61
47 0 31 -59 53 -89 34z"/>
<path d="M1677 1282 c-61 -61 -68 -79 -39 -105 21 -19 36 -13 127 50 64 45 72
74 25 98 -16 8 -35 15 -42 15 -8 0 -39 -26 -71 -58z"/>
<path d="M1297 1312 c-14 -15 -17 -41 -17 -134 0 -161 3 -163 125 -58 101 88
119 115 89 137 -32 24 -50 14 -97 -54 -51 -73 -56 -68 -36 28 18 83 -20 130
-64 81z"/>
<path d="M764 1230 c-88 -63 -143 -114 -262 -242 -221 -239 -342 -394 -369
-470 l-22 -63 28 -95 28 -95 88 -64 c58 -42 101 -65 125 -68 33 -5 40 -1 68
33 18 21 32 50 32 64 0 15 -22 56 -54 100 -54 73 -55 76 -61 160 -11 164 -15
179 -41 193 l-25 13 67 79 c37 44 115 130 173 190 58 61 138 145 176 186 39
42 93 94 120 117 28 23 48 41 45 41 -3 0 -55 -36 -116 -79z"/>
<path d="M809 1186 c-77 -73 -115 -118 -137 -161 -24 -48 -47 -72 -111 -122
-57 -44 -94 -84 -130 -137 -28 -41 -51 -78 -51 -81 0 -20 27 6 79 74 38 49 86
98 129 129 53 38 78 66 113 123 39 65 70 103 193 236 16 18 28 35 25 37 -2 2
-52 -42 -110 -98z"/>
<path d="M918 1229 c-31 -26 -64 -70 -95 -127 -51 -93 -183 -244 -304 -346
-37 -31 -69 -65 -72 -76 -3 -11 -4 -20 -2 -20 5 0 244 208 317 275 45 42 66
72 101 148 25 52 59 116 76 141 18 25 31 46 29 46 -2 0 -24 -18 -50 -41z"/>
<path d="M964 1131 l-49 -122 -110 -103 c-60 -56 -155 -138 -210 -181 -55 -43
-104 -82 -110 -87 -5 -5 44 16 110 47 209 99 224 105 268 104 87 -3 100 -10
115 -61 12 -43 10 -57 -18 -176 -34 -147 -35 -158 -16 -165 9 -4 29 30 66 111
73 163 138 281 173 319 l30 32 -18 48 c-26 71 -77 173 -85 173 -5 0 -6 -28 -3
-62 6 -55 4 -61 -11 -55 -10 4 -22 7 -27 7 -5 0 -9 53 -9 118 0 107 -2 119
-23 146 l-24 29 -49 -122z m77 -196 c27 -14 49 -32 49 -40 0 -23 -75 -67 -122
-72 -35 -3 -53 2 -95 27 -29 17 -53 37 -53 45 0 9 21 29 48 46 55 36 93 34
173 -6z"/>
<path d="M900 932 c-18 -9 -36 -22 -38 -29 -5 -16 56 -53 87 -53 24 0 101 38
101 50 0 7 -59 35 -95 44 -11 3 -36 -2 -55 -12z"/>
<path d="M1811 1135 c-96 -77 -114 -150 -34 -135 52 10 172 66 179 83 3 8 -4
33 -16 56 -28 55 -57 55 -129 -4z"/>
<path d="M1602 1005 c-23 -36 -42 -67 -42 -69 0 -5 136 7 146 13 8 4 -1 26
-26 64 l-37 59 -41 -67z"/>
<path d="M2225 956 c-49 -6 -83 -14 -74 -18 21 -8 121 2 189 21 34 9 35 9 5 9
-16 -1 -70 -6 -120 -12z"/>
<path d="M2395 960 c-17 -7 -17 -9 -2 -9 9 -1 17 -9 17 -18 0 -10 3 -29 6 -43
6 -21 4 -23 -7 -12 -7 6 -18 12 -23 12 -6 0 -3 -5 6 -11 11 -6 15 -16 11 -26
-5 -13 -1 -12 17 4 17 16 20 26 13 35 -6 7 -13 26 -15 41 -7 38 15 30 23 -9 6
-28 7 -28 8 -3 0 14 -4 30 -11 37 -14 14 -16 14 -43 2z"/>
<path d="M2074 931 c3 -4 -18 -6 -47 -5 -38 3 -48 1 -37 -7 11 -8 4 -9 -25 -4
-29 4 -36 3 -25 -4 12 -9 9 -11 -13 -11 -18 0 -26 -4 -22 -11 5 -7 -7 -8 -38
-4 -25 4 -52 3 -60 -1 -10 -6 10 -10 54 -11 41 -2 68 1 64 6 -11 18 84 24 125
8 32 -12 45 -13 86 -1 27 7 47 13 44 14 -3 1 -27 3 -55 5 -39 2 -43 1 -20 -5
20 -5 23 -8 10 -9 -11 0 -40 6 -65 14 -42 14 -43 15 -10 11 19 -2 43 1 53 6
11 5 25 5 38 -2 20 -11 39 -6 26 6 -9 10 -88 14 -83 5z"/>
<path d="M2641 930 c-35 -21 21 -38 77 -23 18 4 20 8 10 14 -29 19 33 8 68
-11 24 -14 43 -18 57 -13 12 4 25 6 30 5 4 -1 7 6 7 16 1 32 30 -18 31 -52 0
-29 1 -29 9 -8 9 21 30 29 43 16 10 -10 -12 -44 -28 -44 -8 0 -15 -7 -15 -16
0 -29 25 -9 49 40 27 55 19 78 -21 57 l-23 -12 22 5 c13 2 26 0 29 -5 3 -5 -8
-9 -24 -9 -43 0 -49 26 -8 34 18 4 42 3 52 0 11 -4 16 -3 11 2 -12 13 -200 13
-209 0 -5 -8 -11 -7 -20 2 -17 17 -75 15 -82 -3 -3 -9 -18 -15 -38 -14 -26 0
-29 2 -14 8 11 4 15 10 10 14 -6 3 -16 2 -23 -3z m236 -6 c-3 -3 -12 -4 -19
-1 -8 3 -5 6 6 6 11 1 17 -2 13 -5z m-32 -14 c3 -5 -1 -10 -9 -10 -9 0 -16 5
-16 10 0 6 4 10 9 10 6 0 13 -4 16 -10z"/>
<path d="M2680 930 c0 -5 5 -10 10 -10 6 0 10 5 10 10 0 6 -4 10 -10 10 -5 0
-10 -4 -10 -10z"/>
<path d="M3086 921 c-13 -15 -14 -20 -4 -24 9 -4 7 -6 -4 -6 -15 -1 -16 -5 -6
-26 9 -20 9 -28 -1 -38 -11 -10 -12 -8 -7 10 4 12 2 24 -4 28 -10 6 -14 -7
-11 -34 2 -8 -2 -10 -10 -5 -8 5 -10 3 -4 -5 4 -7 -2 -22 -16 -37 -12 -13 -17
-24 -11 -24 7 0 12 5 12 10 0 6 7 10 16 10 8 0 13 4 10 8 -2 4 -1 14 3 21 6 9
9 4 9 -13 0 -17 -6 -26 -17 -27 -11 0 -12 -2 -3 -6 15 -6 39 12 54 41 10 19
10 20 -5 7 -10 -8 -17 -9 -17 -3 0 6 5 14 11 18 6 3 9 17 6 30 -2 13 0 24 4
24 5 0 9 -4 9 -10 0 -5 7 -7 15 -4 8 4 15 12 15 19 0 8 8 16 18 18 13 4 12 5
-5 6 -17 1 -21 5 -16 19 5 14 3 13 -10 -3 -9 -11 -11 -21 -6 -23 12 -5 12 -22
0 -22 -15 0 -22 32 -10 46 17 21 5 17 -15 -5z"/>
<path d="M3148 928 c9 -9 15 -9 24 0 9 9 7 12 -12 12 -19 0 -21 -3 -12 -12z"/>
<path d="M3187 919 c-12 -13 -13 -19 -5 -18 7 1 54 1 104 0 l92 -1 -2 -39 c-1
-22 2 -37 7 -34 5 3 7 -5 5 -17 -2 -13 -11 -24 -21 -26 -14 -2 -16 2 -11 19 6
19 5 20 -9 9 -13 -11 -14 -17 -4 -32 8 -14 13 -16 19 -7 6 9 8 9 8 -2 0 -11 3
-11 15 -1 8 7 15 21 15 31 0 11 4 19 9 19 10 0 24 38 22 58 -3 19 -42 62 -57
62 -7 0 3 -15 22 -34 31 -31 33 -37 22 -55 -7 -12 -16 -21 -20 -21 -8 0 -9 5
-12 52 -3 43 -31 57 -111 58 -59 0 -73 -3 -88 -21z m76 4 c-13 -2 -33 -2 -45
0 -13 2 -3 4 22 4 25 0 35 -2 23 -4z"/>
<path d="M3427 920 c12 -14 19 -15 28 -7 16 15 12 20 -19 23 -23 2 -23 1 -9
-16z"/>
<path d="M3531 926 c-8 -10 -9 -16 -1 -21 5 -3 13 1 16 10 9 22 -1 29 -15 11z"/>
<path d="M3557 920 c-3 -11 -1 -20 3 -20 5 0 11 8 13 18 4 15 5 15 6 1 1 -11
9 -16 26 -15 29 1 30 3 13 19 -22 20 -55 18 -61 -3z"/>
<path d="M3628 933 c7 -3 16 -2 19 1 4 3 -2 6 -13 5 -11 0 -14 -3 -6 -6z"/>
<path d="M3673 920 c2 -14 -8 -49 -24 -78 -41 -79 -41 -82 -16 -82 16 0 18 3
9 9 -11 7 -10 10 3 15 24 9 25 8 18 -11 -6 -15 -5 -16 9 -3 12 11 13 19 4 32
-9 15 -12 15 -19 3 -4 -8 -12 -15 -17 -15 -5 0 -2 13 8 29 18 31 47 31 37 0
-10 -32 9 -21 27 16 10 20 13 37 8 40 -14 8 -12 18 5 41 14 18 15 17 9 -11 -4
-22 -3 -26 4 -16 8 11 26 14 61 12 31 -1 51 2 51 8 0 6 -21 11 -50 11 -27 0
-50 4 -50 10 0 5 -11 9 -25 8 -19 -2 -24 -7 -19 -20 4 -12 0 -18 -11 -18 -9 0
-14 4 -11 8 2 4 0 14 -5 22 -7 11 -8 9 -6 -10z m32 -71 c-8 -11 -35 7 -35 23
0 6 7 5 15 -2 13 -11 15 -10 9 6 -5 18 -5 18 6 1 6 -9 8 -22 5 -28z"/>
<path d="M3778 933 c12 -2 32 -2 45 0 12 2 2 4 -23 4 -25 0 -35 -2 -22 -4z"/>
<path d="M3858 933 c6 -2 12 -11 12 -19 0 -21 28 -17 40 6 13 25 2 26 -17 3
-14 -17 -14 -17 -9 0 4 13 0 17 -17 16 -12 0 -16 -3 -9 -6z"/>
<path d="M3984 918 c-10 -13 -15 -20 -10 -16 12 10 36 -10 36 -31 -1 -14 -2
-14 -11 2 -17 29 -37 19 -59 -30 -31 -71 -23 -74 154 -77 111 -2 149 1 158 11
6 7 15 13 20 13 6 0 4 -8 -3 -17 -12 -14 -11 -14 13 1 15 10 25 22 22 27 -3 5
2 16 10 25 9 9 13 20 10 26 -4 5 -13 -4 -21 -21 -19 -38 -36 -41 -27 -3 9 36
14 43 25 37 17 -11 9 8 -8 21 -10 7 -14 16 -9 21 5 4 11 2 13 -4 6 -16 33 -17
33 -2 0 5 -4 8 -9 4 -5 -3 -16 4 -24 16 -9 13 -17 16 -22 10 -3 -6 -36 -11
-73 -12 l-67 -1 45 -9 c25 -5 52 -6 61 -4 28 9 42 -19 26 -52 -8 -15 -12 -34
-9 -42 3 -8 0 -11 -6 -7 -6 3 -14 1 -18 -5 -4 -8 -3 -9 4 -5 7 4 12 3 12 -2 0
-6 -61 -12 -142 -14 -134 -4 -174 1 -149 16 6 4 11 15 10 24 0 13 -3 12 -11
-5 -6 -13 -15 -23 -20 -23 -5 0 -2 13 7 30 8 16 15 37 16 47 0 10 6 3 14 -17
8 -20 14 -27 14 -17 1 10 5 16 10 13 5 -3 14 8 21 24 13 30 23 35 72 31 14 -1
30 3 34 10 5 9 -6 11 -45 6 -40 -5 -53 -3 -58 8 -7 21 -17 19 -39 -7z m36 -19
c0 -6 -4 -7 -10 -4 -5 3 -10 11 -10 16 0 6 5 7 10 4 6 -3 10 -11 10 -16z"/>
<path d="M4035 930 c3 -5 12 -7 20 -3 21 7 19 13 -6 13 -11 0 -18 -4 -14 -10z"/>
<path d="M4128 933 c29 -2 74 -2 100 0 26 2 2 3 -53 3 -55 0 -76 -1 -47 -3z"/>
<path d="M4318 923 c22 -16 33 -61 10 -47 -7 4 -8 3 -4 -5 11 -17 26 -3 26 24
0 14 -8 29 -19 35 -30 15 -39 11 -13 -7z"/>
<path d="M4441 922 c-20 -15 -28 -34 -30 -70 -1 -7 -5 -10 -11 -7 -9 6 -12 2
-14 -27 -1 -7 -7 -19 -13 -26 -7 -7 -13 -19 -13 -25 0 -6 11 0 24 13 12 14 19
27 15 28 -14 6 -10 22 3 20 7 -2 14 7 16 20 2 12 8 22 13 22 6 0 8 4 5 9 -9
14 4 41 20 41 8 0 14 5 14 10 0 14 -4 13 -29 -8z"/>
<path d="M4508 933 c7 -3 16 -2 19 1 4 3 -2 6 -13 5 -11 0 -14 -3 -6 -6z"/>
<path d="M4543 925 c-20 -23 -15 -30 7 -10 11 10 23 15 27 12 3 -4 1 -7 -5 -7
-7 0 -12 -4 -12 -9 0 -4 57 -8 127 -7 113 1 128 3 131 19 3 15 -8 17 -130 17
-102 -1 -136 -4 -145 -15z m266 0 c-8 -7 -209 -8 -216 -1 -4 3 45 6 107 6 62
0 111 -2 109 -5z"/>
<path d="M4886 909 c-10 -21 -11 -29 -3 -26 7 2 13 13 15 25 3 17 6 19 17 9 9
-9 10 -14 1 -20 -7 -6 -4 -7 7 -3 10 3 84 6 163 6 86 0 144 4 144 10 0 6 -60
9 -151 9 -82 -1 -152 1 -155 4 -3 3 61 6 142 6 82 1 150 4 153 6 2 3 -68 5
-157 5 l-161 0 -15 -31z"/>
<path d="M5238 931 c8 -5 13 -11 13 -15 -3 -18 0 -20 9 -6 14 22 12 26 -12 27
-16 2 -19 0 -10 -6z"/>
<path d="M5350 929 c-13 -9 -12 -10 3 -5 11 3 16 2 12 -4 -3 -6 -12 -10 -19
-10 -9 0 -12 -10 -9 -27 2 -22 2 -24 -5 -9 -7 15 -10 16 -14 5 -3 -8 1 -20 8
-27 11 -10 14 -10 14 0 0 9 3 9 10 -2 5 -8 13 -11 17 -6 4 5 2 11 -4 13 -18 6
-16 40 2 47 8 3 15 1 15 -3 0 -5 -5 -11 -12 -13 -9 -3 -9 -6 0 -12 18 -11 33
35 16 51 -15 16 -15 16 -34 2z"/>
<path d="M5390 936 c0 -9 30 -14 35 -6 4 6 -3 10 -14 10 -12 0 -21 -2 -21 -4z"/>
<path d="M5438 921 c-6 -10 -18 -17 -25 -14 -25 10 -13 -12 20 -34 35 -24 52
-29 42 -14 -3 6 5 15 17 22 22 11 22 11 8 -6 -14 -17 -13 -17 10 -10 l25 7
-23 -25 c-15 -16 -20 -27 -13 -32 7 -3 10 -1 9 6 -2 7 9 14 25 15 21 2 27 -1
23 -11 -2 -7 1 -15 8 -18 6 -3 13 3 13 13 2 20 -22 34 -40 23 -6 -4 -8 0 -4 9
8 22 -29 56 -45 40 -13 -13 -48 2 -48 20 0 7 4 7 14 -1 10 -8 16 -9 21 -1 4 6
1 9 -7 8 -7 -2 -12 3 -10 10 3 18 -6 15 -20 -7z m26 -50 c-2 -3 -12 3 -22 13
-16 17 -16 18 5 5 12 -7 20 -15 17 -18z"/>
<path d="M5666 924 c-9 -23 -8 -27 9 -21 8 4 17 2 20 -3 4 -6 -1 -10 -9 -10
-21 0 -28 -16 -13 -29 10 -8 18 0 35 34 l22 45 -29 0 c-17 0 -31 -6 -35 -16z
m44 -2 c0 -4 -9 -8 -19 -8 -11 0 -17 4 -15 8 3 4 12 8 20 8 8 0 14 -4 14 -8z"/>
<path d="M2298 908 c-60 -11 -73 -22 -38 -33 11 -4 18 -11 15 -16 -4 -5 1 -9
10 -9 12 0 15 6 10 20 -6 18 -2 20 32 20 46 0 74 14 48 24 -9 3 -17 5 -18 5
-1 -1 -28 -6 -59 -11z"/>
<path d="M2756 895 c5 -19 -1 -40 -20 -75 -21 -38 -23 -49 -12 -53 10 -4 12 1
9 16 -4 20 -3 20 7 5 15 -25 33 -22 47 7 6 14 7 23 2 19 -5 -3 -9 0 -9 5 0 6
6 11 13 11 22 0 37 43 21 58 -7 6 -18 12 -24 12 -13 0 -13 -27 0 -35 6 -4 7 1
3 12 -5 14 -3 16 7 6 7 -6 10 -19 6 -28 -9 -24 -36 -1 -36 31 0 12 -5 26 -10
29 -7 4 -8 -3 -4 -20z m12 -87 c1 -31 0 -32 -14 -13 -9 12 -11 21 -4 23 5 2 8
8 4 13 -3 5 -1 9 4 9 5 0 9 -15 10 -32z"/>
<path d="M3640 910 c0 -5 5 -10 10 -10 6 0 10 5 10 10 0 6 -4 10 -10 10 -5 0
-10 -4 -10 -10z"/>
<path d="M4500 910 c0 -5 5 -10 11 -10 5 0 7 5 4 10 -3 6 -8 10 -11 10 -2 0
-4 -4 -4 -10z"/>
<path d="M1858 903 c6 -2 18 -2 25 0 6 3 1 5 -13 5 -14 0 -19 -2 -12 -5z"/>
<path d="M4444 899 c-3 -6 -2 -15 4 -21 6 -6 8 -17 5 -25 -5 -12 -7 -12 -15
-1 -6 9 -7 5 -3 -11 5 -16 4 -21 -4 -17 -6 4 -11 1 -11 -8 0 -27 18 -26 29 2
6 15 15 38 21 51 8 19 7 22 -4 18 -10 -4 -13 -1 -9 9 6 16 -3 19 -13 3z"/>
<path d="M1726 893 c-4 -4 -24 -7 -44 -6 l-37 2 35 -9 c20 -5 41 -5 52 1 23
12 31 11 22 -3 -4 -7 -3 -8 5 -4 6 4 9 12 6 17 -7 11 -29 12 -39 2z"/>
<path d="M5635 883 c-5 -10 -7 -27 -6 -38 2 -17 0 -18 -9 -5 -10 13 -11 12 -6
-2 4 -13 0 -18 -12 -18 -14 0 -15 -2 -2 -10 17 -10 14 -15 -17 -24 -13 -4 -23
-4 -23 1 0 4 -9 14 -20 20 -29 19 -15 -11 15 -31 34 -22 66 -21 58 2 -6 15 -5
15 10 4 9 -8 21 -11 27 -7 13 8 13 25 -1 25 -5 0 -7 -4 -4 -10 3 -5 1 -10 -5
-10 -15 0 -26 33 -12 38 7 2 12 10 12 17 0 8 5 17 12 21 8 5 9 2 5 -10 -9 -23
2 -43 14 -25 4 7 2 22 -4 33 -6 12 -11 24 -12 28 -1 16 -13 17 -20 1z"/>
<path d="M1972 882 c-8 -5 1 -8 23 -8 19 1 35 4 35 9 0 9 -42 9 -58 -1z"/>
<path d="M1542 872 c-12 -2 -20 -8 -16 -13 3 -6 -3 -5 -14 2 -12 7 -25 10 -29
6 -22 -22 65 -30 125 -12 54 17 9 29 -66 17z"/>
<path d="M4890 870 c0 -5 -5 -9 -12 -7 -13 2 -58 -59 -58 -79 0 -8 4 -14 10
-14 5 0 6 8 3 18 -6 15 -5 16 13 2 10 -8 23 -19 27 -25 5 -5 5 0 2 13 -4 13
-2 22 4 22 6 0 11 -6 11 -14 0 -21 21 -31 31 -15 6 10 34 14 108 14 55 0 99
-4 98 -9 -3 -12 46 -15 61 -4 28 23 4 28 -143 28 -141 0 -155 2 -155 18 0 14
-3 13 -18 -6 -10 -13 -21 -20 -25 -16 -10 11 -9 26 2 19 5 -3 13 4 16 16 4 11
9 18 12 15 6 -5 33 18 33 28 0 3 -4 6 -10 6 -5 0 -10 -4 -10 -10z m287 -86
c-3 -3 -12 -4 -19 -1 -8 3 -5 6 6 6 11 1 17 -2 13 -5z"/>
<path d="M2340 860 c0 -6 7 -10 15 -10 8 0 15 2 15 4 0 2 -7 6 -15 10 -8 3
-15 1 -15 -4z"/>
<path d="M2599 855 c-1 -5 -1 -16 0 -24 2 -7 -2 -10 -7 -7 -5 3 -9 -6 -9 -20
0 -15 -7 -30 -14 -35 -11 -7 -9 -9 6 -9 11 0 27 5 35 11 13 9 13 10 -2 6 -10
-4 -15 0 -14 8 3 18 16 32 16 17 0 -7 4 -12 10 -12 5 0 7 7 3 15 -3 10 -1 15
8 13 7 -2 15 6 17 17 2 11 9 23 14 26 6 4 -6 6 -26 6 -20 -1 -37 -6 -37 -12z
m41 -9 c0 -20 -27 -28 -34 -10 -3 9 -1 12 4 9 6 -3 10 -1 10 4 0 6 5 11 10 11
6 0 10 -6 10 -14z"/>
<path d="M3148 863 c-14 -3 -31 -10 -37 -17 -9 -11 6 -14 78 -15 77 -2 91 1
99 16 9 16 4 18 -52 19 -33 0 -73 -1 -88 -3z m95 -20 c-24 -2 -62 -2 -85 0
-24 2 -5 4 42 4 47 0 66 -2 43 -4z"/>
<path d="M3320 860 c13 -9 7 -14 -12 -11 -5 0 -8 -3 -8 -8 0 -11 58 -12 65 -1
2 3 -1 12 -7 20 -8 12 -9 12 -4 -2 3 -10 1 -18 -4 -18 -6 0 -10 7 -10 15 0 8
-8 15 -17 15 -15 0 -16 -2 -3 -10z"/>
<path d="M4645 860 c3 -5 1 -10 -4 -10 -6 0 -11 -5 -11 -11 0 -6 9 -8 21 -4
11 4 31 4 45 1 21 -6 23 -9 11 -29 -6 -12 -16 -25 -22 -29 -5 -4 -6 -11 -1
-15 5 -4 11 -2 14 6 4 11 6 11 13 0 13 -21 45 3 42 30 -2 13 1 19 7 16 6 -4 7
1 3 11 -4 11 -2 15 4 11 6 -4 13 0 17 8 3 8 0 18 -6 21 -7 4 -14 2 -16 -5 -3
-9 -7 -9 -18 0 -7 6 -19 9 -26 6 -9 -4 -7 -6 3 -6 25 -1 31 -31 12 -60 -11
-18 -18 -21 -21 -12 -3 8 3 18 12 23 21 12 21 28 -1 28 -10 0 -31 7 -47 15
-33 18 -39 19 -31 5z m99 -75 c-4 -8 -11 -15 -16 -15 -6 0 -5 6 2 15 7 8 14
15 16 15 2 0 1 -7 -2 -15z"/>
<path d="M4916 851 c-16 -18 -10 -18 149 -20 93 -1 165 2 165 7 0 5 -60 10
-132 11 -73 1 -135 4 -137 7 -3 3 54 4 127 3 74 0 136 1 139 4 3 3 -62 6 -145
6 -132 0 -152 -2 -166 -18z m29 -1 c3 -5 1 -10 -4 -10 -6 0 -11 5 -11 10 0 6
2 10 4 10 3 0 8 -4 11 -10z"/>
<path d="M1398 853 c-16 -4 -16 -6 -4 -19 12 -12 19 -12 46 0 31 13 32 13 9
19 -13 4 -26 6 -29 6 -3 -1 -13 -3 -22 -6z m39 -9 c-3 -3 -12 -4 -19 -1 -8 3
-5 6 6 6 11 1 17 -2 13 -5z"/>
<path d="M5299 838 c-1 -7 -1 -19 0 -27 2 -8 -2 -10 -10 -5 -8 4 -10 3 -5 -4
4 -7 3 -12 -2 -12 -6 0 -12 -7 -16 -15 -4 -11 1 -15 19 -15 19 0 25 5 24 23 0
12 2 32 6 45 5 14 3 22 -4 22 -6 0 -12 -6 -12 -12z m1 -58 c0 -5 -5 -10 -11
-10 -5 0 -7 5 -4 10 3 6 8 10 11 10 2 0 4 -4 4 -10z"/>
<path d="M2303 829 c11 -7 23 -7 35 0 14 9 11 10 -18 10 -29 0 -32 -1 -17 -10z"/>
<path d="M2892 810 c-8 -16 -11 -36 -9 -42 3 -7 6 -3 6 10 1 12 6 22 12 22 5
0 7 -4 4 -10 -3 -5 -4 -14 0 -20 7 -11 35 -2 35 13 0 6 -3 7 -7 3 -4 -4 -12 7
-18 23 l-10 31 -13 -30z"/>
<path d="M1331 821 c-11 -7 -10 -11 5 -19 11 -5 22 -10 27 -10 4 0 20 -3 35
-6 15 -3 45 -1 67 4 38 9 38 9 -15 6 l-55 -4 55 19 c38 14 44 18 20 14 -46 -8
-70 -8 -100 -1 -14 4 -31 2 -39 -3z m39 -5 c0 -11 -19 -15 -25 -6 -3 5 1 10 9
10 9 0 16 -2 16 -4z"/>
<path d="M5330 811 c-16 -30 -13 -46 5 -31 8 7 12 17 9 22 -4 6 0 14 7 19 10
6 10 9 2 9 -7 0 -17 -9 -23 -19z"/>
<path d="M1510 811 c0 -6 4 -13 10 -16 6 -3 7 1 4 9 -7 18 -14 21 -14 7z"/>
<path d="M2297 798 c-3 -9 1 -23 9 -29 8 -7 12 -14 9 -17 -2 -3 -11 1 -20 8
-8 7 -15 9 -15 6 0 -4 -10 2 -22 14 -12 11 -27 20 -32 20 -6 0 -4 -4 4 -9 10
-7 3 -11 -25 -14 l-40 -4 44 1 c29 0 47 -5 56 -17 6 -9 15 -14 18 -11 8 9 19
-39 15 -67 -2 -16 -9 -24 -21 -23 -21 2 -22 -9 -3 -25 19 -16 36 14 36 63 0
34 15 57 22 34 2 -6 4 11 5 38 1 42 -2 50 -18 50 -10 0 -20 -8 -22 -18z m28
-8 c-3 -5 -11 -10 -16 -10 -6 0 -7 5 -4 10 3 6 11 10 16 10 6 0 7 -4 4 -10z"/>
<path d="M2393 802 c-3 -12 -10 -19 -15 -16 -5 3 -8 0 -7 -7 3 -20 -26 -81
-34 -72 -7 6 -8 5 -12 -35 -1 -12 -10 -31 -20 -42 -12 -14 -15 -24 -9 -30 7
-7 18 8 33 42 13 29 37 79 53 111 16 33 27 62 23 65 -3 3 -8 -4 -12 -16z"/>
<path d="M1300 796 c0 -9 -6 -13 -13 -10 -21 8 -50 -30 -106 -141 -22 -43 -27
-85 -11 -85 6 0 10 -6 10 -13 0 -29 29 -11 49 29 14 31 25 42 36 38 8 -4 17 0
20 9 4 9 16 13 36 11 16 -2 29 0 29 5 0 5 -11 8 -25 6 -14 -1 -25 2 -25 7 0 9
-50 -20 -62 -37 -4 -5 -8 2 -8 18 0 37 -13 34 -28 -6 -15 -43 -15 -57 1 -53 6
1 9 1 4 -1 -4 -3 -5 -9 -1 -14 3 -5 1 -9 -4 -9 -5 0 -13 10 -19 23 -12 26 -3
55 32 101 14 18 22 36 17 41 -4 5 -1 5 6 0 8 -4 12 -15 9 -25 -2 -10 -1 -24 4
-31 6 -10 9 -10 9 -2 0 7 14 33 31 58 22 33 40 48 62 52 27 5 28 7 12 14 -28
11 -37 11 -30 -1 3 -5 1 -10 -4 -10 -6 0 -11 6 -11 14 0 8 -4 18 -10 21 -5 3
-10 -1 -10 -9z m9 -28 c14 5 14 3 2 -11 -7 -9 -17 -14 -22 -11 -5 3 -6 -2 -3
-10 3 -9 1 -16 -6 -16 -6 0 -8 -5 -5 -11 4 -6 -2 -5 -14 3 -23 14 -27 33 -11
43 6 4 10 3 9 -2 -4 -25 3 -35 12 -15 5 13 6 29 3 35 -5 9 -4 9 6 0 7 -6 20
-9 29 -5z m-85 -177 c-8 -9 -22 12 -17 26 6 15 7 14 13 -3 4 -10 6 -21 4 -23z"/>
<path d="M4000 800 c0 -6 -4 -9 -9 -5 -5 3 -12 1 -16 -5 -8 -12 15 -13 34 -1
9 6 10 11 2 15 -6 4 -11 2 -11 -4z"/>
<path d="M4093 793 c15 -2 39 -2 55 0 15 2 2 4 -28 4 -30 0 -43 -2 -27 -4z"/>
<path d="M4198 793 c7 -3 16 -2 19 1 4 3 -2 6 -13 5 -11 0 -14 -3 -6 -6z"/>
<path d="M4498 793 c12 -2 32 -2 45 0 12 2 2 4 -23 4 -25 0 -35 -2 -22 -4z"/>
<path d="M4578 793 c7 -3 16 -2 19 1 4 3 -2 6 -13 5 -11 0 -14 -3 -6 -6z"/>
<path d="M4644 788 c12 -7 21 -7 28 0 6 6 0 10 -18 10 -23 0 -24 -2 -10 -10z"/>
<path d="M3320 770 c0 -5 5 -10 10 -10 6 0 10 5 10 10 0 6 -4 10 -10 10 -5 0
-10 -4 -10 -10z"/>
<path d="M4395 770 c-4 -6 5 -10 19 -10 14 0 26 5 26 10 0 6 -9 10 -19 10 -11
0 -23 -4 -26 -10z"/>
<path d="M4475 770 c3 -5 44 -10 91 -10 49 0 84 4 84 10 0 6 -37 10 -91 10
-57 0 -88 -4 -84 -10z"/>
<path d="M735 697 l-90 -32 66 -3 c85 -4 114 -30 130 -116 16 -89 2 -93 -74
-19 -53 53 -71 64 -124 77 -58 15 -64 15 -107 -4 -25 -10 -46 -23 -46 -28 0
-5 35 -12 78 -16 l79 -7 60 -62 c39 -40 63 -74 68 -95 4 -21 16 -37 34 -47 27
-13 30 -12 55 14 37 38 76 182 76 276 l0 71 -45 12 c-58 15 -54 16 -160 -21z"/>
<path d="M2247 683 c-14 -27 -22 -54 -20 -60 3 -7 0 -13 -6 -13 -15 0 -81
-139 -74 -156 4 -12 8 -12 20 3 13 17 14 16 9 -7 -3 -14 -3 -19 0 -12 4 9 11
7 25 -9 10 -12 19 -17 19 -11 0 6 -7 17 -15 26 -8 8 -15 19 -15 25 0 15 17 14
23 -1 3 -8 6 -6 6 5 1 9 -2 17 -6 17 -5 0 -8 20 -8 44 0 24 3 42 7 40 5 -3 8
2 8 10 0 25 18 28 30 5 8 -15 9 -29 1 -47 -11 -28 -25 -109 -17 -101 10 11 34
79 26 74 -14 -9 -12 1 5 36 9 16 21 27 26 23 17 -10 -12 38 -33 56 -18 15 -18
16 3 55 12 22 19 30 16 18 -3 -13 -1 -26 4 -29 5 -3 9 9 9 25 0 44 -16 38 -43
-16z m24 -85 c17 -32 -6 -19 -26 15 -17 28 -17 30 -1 18 9 -8 22 -23 27 -33z
m-81 -93 c-6 -15 -13 -25 -17 -21 -3 3 0 17 7 31 17 32 24 26 10 -10z"/>
<path d="M1518 643 c45 -2 82 -7 82 -12 0 -13 -48 -31 -65 -25 -8 4 -15 1 -15
-6 0 -6 4 -9 9 -5 5 3 13 1 16 -5 5 -8 11 -7 21 1 8 6 18 9 22 5 4 -4 -1 -12
-11 -17 -12 -7 -16 -17 -11 -31 4 -14 2 -18 -5 -14 -7 5 -8 1 -4 -10 5 -13 10
-8 25 22 10 20 18 46 18 56 0 12 4 16 11 12 8 -4 8 0 0 15 -11 19 -19 21 -94
19 l-82 -2 83 -3z"/>
<path d="M1867 637 c-8 -6 -6 -7 5 -3 26 8 30 -8 7 -33 -15 -16 -28 -21 -45
-17 -29 8 -30 2 -3 -25 25 -25 53 -21 57 9 4 27 37 27 37 0 0 -9 4 -20 9 -25
5 -5 6 -2 1 7 -5 8 -4 12 0 7 11 -9 14 -48 4 -41 -4 2 -9 -1 -12 -8 -2 -7 -2
-2 0 11 3 19 1 22 -14 16 -10 -4 -26 -8 -35 -9 -10 0 -18 -6 -18 -13 0 -7 -5
-13 -11 -13 -6 0 -8 7 -5 16 3 8 2 12 -4 9 -6 -3 -10 2 -10 13 0 10 -6 19 -13
19 -9 0 -12 -9 -9 -24 2 -12 8 -21 12 -18 10 6 30 -49 30 -79 0 -17 -2 -18 -9
-6 -6 8 -7 18 -5 22 3 4 0 16 -5 25 -8 15 -10 15 -11 3 0 -17 -50 -26 -50 -9
0 5 5 7 12 3 8 -5 9 -2 4 11 -4 11 -2 21 5 26 6 3 9 13 7 20 -3 8 -19 -13 -36
-46 -23 -47 -28 -65 -20 -79 7 -13 7 -21 -2 -26 -18 -11 -2 -32 20 -25 10 3
21 1 25 -5 3 -5 0 -10 -7 -10 -8 0 -6 -5 5 -11 9 -6 15 -14 12 -20 -4 -5 -2
-9 4 -9 18 0 21 18 5 24 -15 6 -15 8 0 24 18 21 21 38 7 46 -5 4 -7 -2 -4 -13
3 -10 -1 -22 -8 -27 -9 -5 -11 -2 -6 8 8 23 -4 30 -23 13 -14 -13 -16 -10 -17
28 -1 23 1 36 6 29 4 -7 21 -16 39 -21 26 -8 30 -7 25 7 -10 28 9 4 29 -36 12
-24 16 -28 12 -12 -13 58 -8 110 11 110 22 0 30 -27 16 -53 -10 -20 -11 -18
-6 13 3 25 2 31 -5 20 -13 -20 -13 -60 1 -60 5 0 7 -4 4 -10 -3 -5 -4 -10 -2
-10 3 0 14 18 26 40 11 22 16 40 11 40 -6 0 -10 5 -10 11 0 6 6 9 14 6 13 -5
27 18 30 50 1 6 10 21 21 33 26 28 29 77 5 85 -24 8 -99 2 -113 -8z m117 -13
c3 -9 6 -21 5 -27 0 -7 -4 -2 -9 11 -10 24 -17 26 -40 12 -12 -7 -12 -12 -2
-22 9 -9 12 -9 12 5 0 30 15 18 17 -13 1 -17 -2 -30 -7 -30 -16 0 -41 46 -34
64 8 21 50 21 58 0z"/>
<path d="M3880 548 c-68 -163 -88 -198 -109 -198 -11 0 -43 27 -75 62 l-55 62
24 28 c13 15 26 36 30 47 9 28 -12 70 -40 81 -34 13 -209 13 -177 0 21 -9 22
-14 22 -144 0 -98 -3 -136 -12 -139 -7 -3 11 -6 40 -6 49 -1 52 0 38 15 -10 9
-16 33 -16 60 0 41 2 44 28 44 19 0 33 -8 45 -27 52 -85 107 -112 187 -93 19
4 32 8 28 9 -4 1 0 21 9 46 l15 45 54 0 53 0 18 -50 c18 -50 18 -50 61 -50 43
0 44 0 24 18 -11 9 -44 73 -73 142 -29 69 -58 131 -64 138 -9 10 -21 -10 -55
-90z m-258 55 c37 -42 27 -108 -19 -119 -44 -11 -53 0 -53 71 0 65 0 65 28 65
16 0 36 -8 44 -17z m321 -98 l16 -45 -40 0 c-21 0 -39 4 -39 10 0 21 33 90 40
85 5 -3 15 -25 23 -50z"/>
<path d="M4345 528 c-26 -68 -56 -138 -66 -155 l-18 -33 24 0 c18 0 25 5 25
20 0 11 7 36 15 56 14 34 15 35 66 32 l51 -3 22 -52 c19 -47 24 -53 51 -53 17
0 25 4 19 8 -15 10 -43 67 -93 195 -24 59 -45 107 -46 107 -2 0 -24 -55 -50
-122z m60 15 c33 -78 32 -83 -14 -83 -27 0 -41 4 -41 13 0 16 30 107 36 107 2
0 11 -17 19 -37z"/>
<path d="M2556 624 c-3 -9 -6 -25 -5 -37 l0 -22 11 22 c6 12 20 24 32 27 37
10 116 7 116 -5 0 -6 -38 -67 -85 -135 -47 -69 -85 -127 -85 -130 0 -3 55 -3
123 -2 l122 3 3 28 3 28 -20 -20 c-17 -17 -34 -21 -91 -21 l-70 0 90 135 c49
74 90 137 90 140 0 3 -51 5 -114 5 -95 0 -115 -3 -120 -16z"/>
<path d="M2883 633 c16 -4 18 -17 15 -149 l-3 -144 93 0 92 0 0 27 c0 24 -1
25 -13 9 -10 -13 -24 -17 -57 -14 l-45 3 -3 63 -3 62 40 0 c28 0 43 -5 50 -17
9 -15 10 -13 11 12 0 30 0 30 -50 27 l-50 -4 0 56 0 56 37 0 c20 0 45 -7 55
-17 17 -15 18 -15 18 10 l0 27 -102 -1 c-57 -1 -95 -3 -85 -6z"/>
<path d="M3168 633 c22 -4 22 -7 22 -143 0 -101 -3 -140 -12 -143 -7 -3 26 -6
74 -6 77 -1 90 2 114 22 39 34 37 81 -4 118 l-32 28 21 35 c16 28 18 39 9 55
-17 33 -44 41 -132 40 -46 -1 -73 -4 -60 -6z m134 -30 c36 -32 11 -98 -36 -91
-18 3 -21 10 -23 56 -1 47 0 52 19 52 12 0 30 -7 40 -17z m17 -139 c29 -37 27
-79 -4 -100 -48 -32 -75 -3 -75 84 0 40 1 42 29 42 20 0 36 -9 50 -26z"/>
<path d="M4604 627 c16 -11 17 -28 14 -150 l-3 -137 83 0 c45 0 82 4 82 9 0 5
3 17 7 27 5 14 2 13 -15 -4 -14 -14 -34 -22 -54 -22 -59 0 -63 8 -67 138 -2
101 0 121 14 135 15 16 13 17 -31 17 -42 0 -46 -2 -30 -13z"/>
<path d="M4858 631 c10 -6 12 -41 10 -149 l-3 -142 25 0 25 0 -3 145 -3 145
28 0 c35 -1 59 -19 72 -53 14 -36 -2 -70 -42 -91 -27 -13 -28 -15 -7 -10 85
19 117 88 65 139 -21 22 -33 25 -102 25 -45 0 -72 -4 -65 -9z"/>
<path d="M5128 631 c10 -6 12 -41 10 -149 l-3 -142 25 0 c25 0 25 0 22 80 l-4
80 92 0 92 0 -4 -80 c-3 -80 -3 -80 22 -80 l25 0 -3 142 c-2 108 0 143 10 149
8 5 -5 8 -32 8 -25 0 -39 -3 -32 -6 8 -3 12 -26 12 -64 l0 -59 -90 0 -90 0 0
59 c0 38 4 61 13 64 6 3 -8 6 -33 6 -27 0 -40 -3 -32 -8z"/>
<path d="M5555 496 c-31 -80 -62 -147 -68 -150 -7 -2 3 -5 21 -5 21 -1 31 3
27 10 -4 6 0 30 10 55 l17 44 52 0 53 0 18 -55 c17 -50 22 -55 49 -55 27 0 28
1 14 18 -8 9 -39 77 -69 150 -29 72 -56 132 -60 132 -4 0 -33 -65 -64 -144z
m91 -23 c-3 -7 -21 -13 -42 -13 -41 0 -41 6 -8 86 l16 39 20 -49 c10 -27 17
-55 14 -63z"/>
<path d="M1400 618 c0 -4 6 -8 14 -8 8 0 17 4 20 8 2 4 -4 8 -15 8 -10 0 -19
-4 -19 -8z"/>
<path d="M1538 623 c7 -3 16 -2 19 1 4 3 -2 6 -13 5 -11 0 -14 -3 -6 -6z"/>
<path d="M1835 619 c-4 -6 -5 -12 -2 -15 2 -3 7 2 10 11 7 17 1 20 -8 4z"/>
<path d="M1441 595 c0 -12 -6 -26 -12 -32 -8 -8 -8 -16 0 -30 11 -17 12 -17 6
2 -4 16 0 21 15 22 11 1 18 -2 15 -7 -3 -5 0 -12 6 -16 7 -4 9 -3 6 3 -4 6 -1
13 7 16 16 6 30 -30 15 -38 -4 -3 -4 -17 1 -30 7 -20 6 -25 -5 -25 -8 0 -15
-4 -15 -10 0 -5 7 -10 15 -10 8 0 15 5 15 11 0 6 7 9 14 6 15 -6 33 28 26 48
-1 6 -3 23 -4 40 -1 29 -2 29 -48 26 -42 -2 -47 0 -51 21 -4 20 -4 20 -6 3z
m96 -83 c2 -23 0 -42 -4 -42 -4 0 -8 17 -8 38 1 20 -4 41 -10 45 -6 5 -5 7 4
5 9 -3 16 -21 18 -46z"/>
<path d="M2226 575 c-3 -9 -6 -31 -5 -48 0 -18 3 -25 6 -17 2 8 9 25 16 38 7
16 7 26 0 33 -7 7 -12 5 -17 -6z"/>
<path d="M1137 566 c-3 -8 -2 -18 3 -21 6 -4 10 -14 9 -23 0 -14 -2 -13 -8 3
-8 19 -8 19 -20 -4 -19 -35 3 -52 29 -21 23 27 23 28 6 59 -11 19 -14 21 -19
7z"/>
<path d="M396 507 c10 -35 24 -42 114 -66 60 -15 89 -28 100 -43 8 -12 26 -35
39 -51 30 -36 65 -34 69 4 2 20 -9 40 -48 82 -50 54 -52 56 -118 62 -37 4 -89
12 -115 20 -47 13 -48 13 -41 -8z"/>
<path d="M1407 516 c-4 -10 -3 -15 3 -11 6 4 10 -17 10 -54 0 -59 -8 -75 -39
-76 -14 0 -37 -45 -23 -45 4 0 17 7 28 15 12 8 24 11 28 7 4 -3 4 0 1 9 -4 10
1 15 15 16 17 2 19 -3 14 -25 -4 -21 -3 -24 5 -12 6 8 11 26 11 38 0 31 24 23
28 -9 2 -13 11 -32 20 -42 15 -16 15 -17 -1 -11 -10 3 -17 1 -17 -6 0 -6 -4
-9 -9 -6 -5 3 -7 16 -4 29 l4 22 -13 -23 c-8 -12 -16 -21 -19 -20 -2 2 2 -3
10 -9 12 -11 12 -13 1 -13 -7 0 -10 -3 -7 -6 4 -4 17 0 31 9 21 14 25 14 30 1
4 -11 10 -12 25 -4 42 22 126 -1 100 -27 -14 -14 -2 -53 17 -53 8 0 13 4 10 9
-3 5 2 12 11 15 12 5 14 9 5 18 -21 21 -15 72 10 83 13 6 24 18 26 27 2 13 -5
9 -28 -12 -18 -17 -44 -31 -59 -31 -95 -6 -102 -5 -116 18 -19 29 -19 69 0 77
8 3 15 11 15 17 0 7 -8 6 -24 -4 -21 -14 -25 -14 -40 1 -15 15 -16 15 -16 -5
0 -12 -4 -24 -9 -27 -5 -3 -9 19 -10 49 0 62 -13 99 -24 71z"/>
<path d="M1165 494 c-11 -17 -13 -30 -7 -36 6 -6 12 -5 17 3 5 8 4 10 -3 5 -7
-4 -12 -2 -12 3 0 6 3 11 8 11 4 0 13 9 20 20 18 30 -3 24 -23 -6z"/>
<path d="M1440 478 c0 -12 3 -18 7 -14 11 10 12 36 2 36 -5 0 -9 -10 -9 -22z"/>
<path d="M1384 479 c-4 -7 -3 -9 4 -5 5 3 13 0 15 -6 4 -9 6 -10 6 -1 1 17
-16 25 -25 12z"/>
<path d="M1096 472 c-2 -4 -1 -14 5 -22 14 -23 11 -29 -11 -25 -11 2 -20 0
-20 -5 0 -15 18 -21 22 -8 3 8 7 6 11 -5 4 -11 1 -17 -7 -17 -8 0 -17 -10 -21
-22 -20 -58 -23 -64 -24 -45 -1 9 -6 17 -11 17 -6 0 -4 -12 4 -29 9 -16 12
-31 9 -35 -4 -3 -2 -6 4 -6 6 0 13 -9 16 -20 6 -23 27 -27 27 -6 0 8 -6 21
-12 28 -17 18 -20 47 -6 81 12 32 14 32 35 11 12 -11 13 -18 4 -27 -6 -6 -10
-22 -10 -36 2 -24 2 -24 6 -3 5 25 25 29 42 9 8 -11 5 -17 -17 -27 -18 -8 -22
-14 -13 -18 7 -2 17 1 21 8 6 9 9 9 12 -1 3 -10 8 -7 17 9 9 18 20 22 56 22
29 0 45 4 45 13 0 8 4 7 10 -3 5 -8 10 -10 10 -4 0 7 13 10 32 9 30 -3 31 -2
13 11 -21 16 -45 19 -45 6 0 -10 -9 -12 -75 -13 -72 -2 -71 -2 -85 31 -7 17
-17 30 -22 30 -5 0 -6 5 -3 10 4 6 11 8 17 4 5 -3 3 8 -6 24 -18 35 -19 42 -8
42 5 0 13 -12 18 -27 8 -24 11 -25 17 -10 4 11 3 16 -3 12 -6 -3 -10 3 -10 13
0 11 -7 23 -16 26 -20 8 -22 8 -28 -2z"/>
<path d="M1359 413 c-13 -27 -27 -50 -32 -51 -4 -2 -5 -8 -1 -13 6 -11 24 -12
23 -1 -4 21 2 42 10 37 5 -3 13 0 17 6 4 8 3 9 -4 5 -7 -4 -12 -2 -12 3 0 6 4
11 9 11 8 0 23 41 17 47 -2 2 -14 -18 -27 -44z"/>
<path d="M1401 438 c0 -9 -4 -25 -7 -35 -5 -17 -5 -17 6 0 6 10 9 25 7 35 -4
15 -5 15 -6 0z"/>
<path d="M2127 436 c-4 -10 -3 -15 3 -11 6 3 10 -5 10 -19 0 -16 6 -26 15 -26
9 0 15 9 15 22 0 12 -3 18 -7 14 -4 -3 -12 3 -18 15 -11 19 -13 19 -18 5z"/>
<path d="M430 400 c-12 -9 -7 -17 30 -50 58 -52 96 -73 120 -65 37 12 24 30
-61 83 -74 47 -69 45 -89 32z"/>
<path d="M2106 402 c-3 -6 -1 -14 5 -17 15 -10 25 3 12 16 -7 7 -13 7 -17 1z"/>
<path d="M2180 395 c0 -9 5 -15 11 -13 6 2 11 8 11 13 0 5 -5 11 -11 13 -6 2
-11 -4 -11 -13z"/>
<path d="M1051 374 c-12 -27 -11 -28 4 -12 10 9 16 21 13 28 -2 7 -10 -1 -17
-16z"/>
<path d="M1880 358 c0 -10 -5 -18 -11 -18 -6 0 -9 -10 -7 -22 3 -20 10 -23 56
-26 38 -2 52 0 47 8 -5 8 1 11 16 8 31 -4 26 -21 -9 -30 -25 -7 -69 -4 -117 9
-11 3 -17 2 -13 -2 4 -5 25 -12 45 -16 l38 -8 -42 3 c-24 2 -43 0 -43 -5 0 -5
6 -9 13 -10 60 -5 86 -5 77 1 -7 4 12 7 42 7 37 0 68 8 106 27 28 14 52 28 52
29 0 2 -19 4 -42 4 -190 3 -176 1 -192 31 -11 19 -15 22 -16 10z m50 -51 c8
-3 3 -6 -13 -6 -16 -1 -26 3 -22 8 3 5 1 12 -5 16 -5 3 -10 1 -10 -6 0 -7 -3
-10 -6 -6 -3 3 -3 11 1 17 5 8 12 7 23 -3 10 -8 24 -17 32 -20z m150 -9 c0
-11 -48 -10 -54 1 -3 4 8 8 24 7 17 -1 30 -4 30 -8z m-60 -28 c-34 -11 -60
-11 -35 0 11 5 29 8 40 8 16 0 15 -2 -5 -8z"/>
<path d="M1087 330 c-3 -11 -1 -20 4 -20 5 0 9 2 9 4 0 2 3 11 6 20 3 9 2 16
-4 16 -5 0 -12 -9 -15 -20z"/>
<path d="M1716 323 c-6 -14 -5 -15 5 -6 7 7 10 15 7 18 -3 3 -9 -2 -12 -12z"/>
<path d="M1738 315 c-7 -34 9 -75 22 -55 5 7 10 8 14 2 3 -5 -9 -17 -27 -25
-32 -16 -31 -16 38 -10 81 6 98 13 35 13 -24 0 -40 3 -37 7 4 3 1 13 -7 22 -7
9 -18 30 -23 46 l-10 30 -5 -30z"/>
<path d="M1368 295 c-3 -14 -1 -25 3 -25 5 0 9 -9 9 -20 0 -16 -7 -20 -36 -20
-21 0 -33 4 -29 10 3 6 1 10 -5 10 -6 0 -9 4 -5 9 9 15 -12 22 -24 8 -6 -8
-26 -12 -46 -11 -42 4 -45 -7 -9 -31 34 -22 146 -17 170 7 14 14 14 18 0 46
-12 23 -13 32 -3 35 7 4 6 6 -4 6 -10 1 -19 -9 -21 -24z m-91 -71 c-3 -3 -12
-4 -19 -1 -8 3 -5 6 6 6 11 1 17 -2 13 -5z"/>
<path d="M1013 286 c-6 -8 -8 -19 -3 -27 5 -7 7 -16 4 -20 -2 -4 2 -9 9 -12 8
-3 14 5 15 22 1 21 0 23 -9 11 -8 -12 -9 -9 -5 13 7 30 6 32 -11 13z"/>
<path d="M1553 243 c-20 -3 -33 -10 -33 -19 0 -8 -10 -14 -22 -15 -22 -1 -22
-1 2 -8 14 -4 26 -4 28 1 2 4 16 5 30 2 26 -5 26 -5 8 10 -17 14 -16 15 18 9
31 -5 36 -3 36 13 0 16 -2 17 -10 4 -6 -10 -10 -11 -10 -2 0 6 -3 11 -7 10 -5
0 -23 -3 -40 -5z"/>
<path d="M980 230 c0 -8 -3 -24 -6 -35 -7 -27 29 -65 62 -65 15 0 23 4 19 10
-4 6 -15 8 -25 5 -12 -4 -23 3 -34 21 -18 26 -16 41 3 29 6 -3 11 -15 11 -26
0 -10 5 -19 10 -19 6 0 4 16 -5 38 -19 43 -35 63 -35 42z"/>
<path d="M1405 216 c-46 -12 -81 -27 -83 -35 -2 -11 6 -12 35 -7 21 3 53 6 71
6 18 0 31 4 28 9 -3 5 -14 8 -24 6 -9 -2 -35 -6 -57 -9 -64 -8 -18 10 63 24
39 7 72 17 72 22 0 11 -12 9 -105 -16z"/>
<path d="M1188 197 c20 -23 9 -33 -40 -36 -24 -2 -51 -4 -60 -4 -9 -1 -14 -5
-12 -9 3 -4 19 -6 37 -4 18 2 47 4 65 5 18 0 31 5 28 9 -3 5 18 7 47 6 36 -3
47 -1 37 6 -8 5 -30 10 -47 10 -18 0 -33 5 -33 11 0 6 8 8 18 5 9 -2 33 -7 52
-10 27 -5 30 -4 14 3 -12 5 -43 13 -70 17 -44 6 -48 5 -36 -9z"/>
<path d="M1031 184 c0 -11 3 -14 6 -6 3 7 2 16 -1 19 -3 4 -6 -2 -5 -13z"/>
</g>
</svg>
